<?xml version="1.0" encoding="UTF-8"?> <svg xmlns="http://www.w3.org/2000/svg" id="Layer_2" data-name="Layer 2" viewBox="0 0 202.49 91.17"><defs><style> .cls-1 { fill: #1650c4; } .cls-2 { fill: #010c39; } .cls-3 { fill: #3166f0; } </style></defs><g id="Layer_1-2" data-name="Layer 1"><g><g><path class="cls-3" d="M120.84,17.18l7.64-7.64,9.16,2.92c2.27-.94,3.5-1.45,4.72-1.95,1.22-.51,2.44-1.01,4.72-1.96l4.41-8.54h10.8l4.41,8.54c2.28.94,3.5,1.45,4.72,1.96,1.23.51,2.45,1.01,4.72,1.95l9.16-2.92,7.64,7.64-2.92,9.16c1.89,4.55,2.03,4.89,3.91,9.44l8.54,4.41v10.81l-8.54,4.41c-.94,2.27-1.45,3.5-1.96,4.72-.51,1.22-1.01,2.44-1.96,4.72l2.92,9.16-7.64,7.64-9.16-2.92c-2.28.94-3.5,1.45-4.72,1.96-1.22.51-2.44,1.01-4.72,1.96l-4.41,8.54h-10.8l-4.41-8.54c-2.28-.94-3.5-1.45-4.72-1.96-1.22-.51-2.45-1.01-4.72-1.96l-9.16,2.92-7.64-7.64,2.92-9.16-4.27-10.32h16.3l7.98,13.83h28.7l5.85-14.33h-24.28l-5.36-8.43,5.36-8.43h24.28l-5.88-14.33h-28.67l-7.98,13.83h-16.3l4.27-10.32-2.92-9.16Z"></path><g><g><path class="cls-2" d="M91.4,30l1.91-3h8.5l-2.11-5.1h-10.2l-4.68,8.11,1.73,3h-5.2l-3.21-5.55h-9.36l-3.2,5.55H25.5V11.22s-5.11,3.09-5.11,3.09v21.16l2.64,2.64h42.55l3.2,5.55h9.36l3.21-5.55h18.35l2.1-5.1h-8.5l-1.91-3ZM75.2,38.55h-3.46l-1.73-2.99,1.73-2.99h3.46l1.73,2.99-1.73,2.99Z"></path><polygon class="cls-2" points="109.58 11.25 109.58 35.02 104.48 38.11 104.48 14.34 109.58 11.25"></polygon><polygon class="cls-2" points="109.58 45.88 109.58 69.66 104.48 72.74 104.48 48.97 109.58 45.88"></polygon><path class="cls-2" d="M102.27,48.06v-2.18l-.89.54-4.22,2.55v18.67h-4.8l1.73-3-4.68-8.11h-9.36l-4.68,8.11,1.73,3h-32.1l1.73-3-4.68-8.11h-12.89v-10.65l-.89.54-4.21,2.55v18.67h-12.61l-1.91-3,1.91-3h8.5l-2.1-5.1H7.65l-4.68,8.11,2.46,4.26-5.43,9.42,6.16,10.68h12.33l5.01-8.67-5.88-.03-2.08,3.6h-6.44l-3.22-5.58,3.22-5.58h90.53c1.03-1.03,1.61-1.61,2.64-2.64v-22.03h0ZM38.25,67.64h-9.08v-6.01h9.08l1.91,3-1.91,3ZM86.47,67.63h-3.46l-1.73-2.99,1.73-3h3.46l1.73,3-1.73,2.99Z"></path><path class="cls-2" d="M17.83,11.22v24.25c-1.03,1.03-1.61,1.61-2.64,2.64H2.64c-1.03-1.03-1.61-1.61-2.64-2.64v-6.54l4.2-2.54.9-.54v7.17h7.62V14.31l4.2-2.54.9-.54Z"></path><polygon class="cls-2" points="83.37 54.87 84.62 52.71 85.86 54.87 88.35 54.87 89.6 52.71 88.35 50.55 85.86 50.55 84.62 52.71 83.37 50.55 80.88 50.55 79.64 52.71 80.88 54.87 83.37 54.87"></polygon></g><polygon class="cls-2" points="103.45 10.48 108.95 10.48 109.58 8.95 107.03 8.95 106.46 8.05 107.03 7.15 109.58 7.15 108.94 5.62 105.89 5.62 104.48 8.05 105 8.95 103.45 8.95 103.45 10.48"></polygon></g></g><polygon class="cls-1" points="178.33 37.15 154.05 54.01 148.69 45.58 154.05 37.15 178.33 37.15"></polygon><polygon class="cls-1" points="143.78 22.82 129.86 36.65 135.79 36.65 143.78 22.82"></polygon><polygon class="cls-1" points="172.48 68.34 147.09 82.63 137.65 78.72 143.78 68.34 172.48 68.34"></polygon></g></g></svg> 